<svg xmlns="http://www.w3.org/2000/svg" width="10em" height="10em" viewBox="0 0 528 528"><defs><filter id="f1" height="130%" width="130%"><feGaussianBlur in="SourceAlpha" stdDeviation="5"></feGaussianBlur> <feOffset dx="5" dy="5" result="offsetblur"></feOffset><feComponentTransfer><feFuncA type="linear" slope="0.5"></feFuncA></feComponentTransfer><feMerge><feMergeNode></feMergeNode><feMergeNode in="SourceGraphic"></feMergeNode></feMerge></filter></defs><g filter="url(#f1)"><path fill-rule="evenodd" fill="rgb(160, 82, 45)" d="M194 -2v68h-68v-68h68z"></path><path fill-rule="evenodd" fill="rgb(214, 163, 48)" d="M258 -2v68h-68v-68h68z"></path><path fill-rule="evenodd" fill="rgb(214, 163, 48)" d="M322 -2v68h-68v-68h68z"></path><path fill-rule="evenodd" fill="rgb(160, 82, 45)" d="M130 62v68h-68v-68h68z"></path><path fill-rule="evenodd" fill="rgb(160, 82, 45)" d="M194 62v68h-68v-68h68z"></path><path fill-rule="evenodd" fill="rgb(214, 163, 48)" d="M258 62v68h-68v-68h68z"></path><path fill-rule="evenodd" fill="rgb(214, 163, 48)" d="M322 62v68h-68v-68h68z"></path><path fill-rule="evenodd" fill="rgb(214, 163, 48)" d="M386 62v68h-68v-68h68z"></path><path fill-rule="evenodd" fill="rgb(160, 82, 45)" d="M130 126v68h-68v-68h68z"></path><path fill-rule="evenodd" fill="rgb(214, 163, 48)" d="M194 126v68h-68v-68h68z"></path><path fill-rule="evenodd" fill="rgb(235, 120, 0)" d="M258 126v68h-68v-68h68z"></path><path fill-rule="evenodd" fill="rgb(214, 163, 48)" d="M322 126v68h-68v-68h68z"></path><path fill-rule="evenodd" fill="rgb(235, 120, 0)" d="M386 126v68h-68v-68h68z"></path><path fill-rule="evenodd" fill="rgb(214, 163, 48)" d="M194 190v68h-68v-68h68z"></path><path fill-rule="evenodd" fill="rgb(68, 68, 68)" d="M258 190v68h-68v-68h68z"></path><path fill-rule="evenodd" fill="rgb(68, 68, 68)" d="M322 190v68h-68v-68h68z"></path><path fill-rule="evenodd" fill="rgb(68, 68, 68)" d="M386 190v68h-68v-68h68z"></path><path fill-rule="evenodd" fill="rgb(0, 128, 0)" d="M130 254v68h-68v-68h68z"></path><path fill-rule="evenodd" fill="rgb(0, 128, 0)" d="M194 254v68h-68v-68h68z"></path><path fill-rule="evenodd" fill="rgb(0, 128, 0)" d="M258 254v68h-68v-68h68z"></path><path fill-rule="evenodd" fill="rgb(0, 128, 0)" d="M322 254v68h-68v-68h68z"></path><path fill-rule="evenodd" fill="rgb(0, 128, 0)" d="M386 254v68h-68v-68h68z"></path><path fill-rule="evenodd" fill="rgb(214, 163, 48)" d="M66 318v68h-68v-68h68z"></path><path fill-rule="evenodd" fill="rgb(0, 128, 0)" d="M194 318v68h-68v-68h68z"></path><path fill-rule="evenodd" fill="rgb(0, 128, 0)" d="M258 318v68h-68v-68h68z"></path><path fill-rule="evenodd" fill="rgb(0, 128, 0)" d="M322 318v68h-68v-68h68z"></path><path fill-rule="evenodd" fill="rgb(214, 163, 48)" d="M450 318v68h-68v-68h68z"></path><path fill-rule="evenodd" fill="rgb(160, 82, 45)" d="M194 382v68h-68v-68h68z"></path><path fill-rule="evenodd" fill="rgb(160, 82, 45)" d="M258 382v68h-68v-68h68z"></path><path fill-rule="evenodd" fill="rgb(160, 82, 45)" d="M322 382v68h-68v-68h68z"></path><path fill-rule="evenodd" fill="rgb(214, 163, 48)" d="M194 446v68h-68v-68h68z"></path><path fill-rule="evenodd" fill="rgb(214, 163, 48)" d="M322 446v68h-68v-68h68z"></path></g></svg>
